<mxfile host="app.diagrams.net" modified="2024-02-20T00:07:19.820Z" agent="Mozilla/5.0 (Macintosh; Intel Mac OS X 10.15; rv:123.0) Gecko/20100101 Firefox/123.0" version="23.1.2" etag="RSmwaGT5DP5gkkQHXuxz" type="github">
  <diagram name="PÃ¡gina-1" id="nFpyrjnZdd-oJNSMOctl">
    <mxGraphModel>
      <root>
        <mxCell id="0" />
        <mxCell id="1" parent="0" />
      </root>
    </mxGraphModel>
  </diagram>
</mxfile>
